<mxfile host="app.diagrams.net" modified="2024-03-30T05:09:27.927Z" agent="Mozilla/5.0 (Windows NT 10.0; Win64; x64) AppleWebKit/537.36 (KHTML, like Gecko) Chrome/123.0.0.0 Safari/537.36 Edg/123.0.0.0" etag="XMMXRQn8NsvgCHVZsNEb" version="23.1.6" type="device">
  <diagram id="R2lEEEUBdFMjLlhIrx00" name="Page-1">
    <mxGraphModel dx="1149" dy="1554" grid="1" gridSize="10" guides="1" tooltips="1" connect="1" arrows="1" fold="1" page="1" pageScale="1" pageWidth="1600" pageHeight="900" math="0" shadow="0" extFonts="Permanent Marker^https://fonts.googleapis.com/css?family=Permanent+Marker">
      <root>
        <mxCell id="0" />
        <mxCell id="1" parent="0" />
        <mxCell id="ar0Zps7FBATPay8NSn_M-12" style="edgeStyle=orthogonalEdgeStyle;rounded=0;orthogonalLoop=1;jettySize=auto;html=1;exitX=1;exitY=0.5;exitDx=0;exitDy=0;startArrow=none;startFill=0;endArrow=none;endFill=0;labelBackgroundColor=none;fontColor=default;sketch=1;curveFitting=1;jiggle=2;fontFamily=Comic Sans MS;fontSize=13;" parent="1" source="ar0Zps7FBATPay8NSn_M-1" target="ar0Zps7FBATPay8NSn_M-11" edge="1">
          <mxGeometry relative="1" as="geometry" />
        </mxCell>
        <mxCell id="ar0Zps7FBATPay8NSn_M-54" value="M&amp;nbsp;" style="edgeLabel;html=1;align=center;verticalAlign=middle;resizable=0;points=[];strokeColor=#BAC8D3;fontColor=#182E3E;fillColor=#B1DDF0;sketch=1;curveFitting=1;jiggle=2;rounded=0;fontFamily=Comic Sans MS;fontSize=13;" parent="ar0Zps7FBATPay8NSn_M-12" vertex="1" connectable="0">
          <mxGeometry x="-0.1" y="-1" relative="1" as="geometry">
            <mxPoint as="offset" />
          </mxGeometry>
        </mxCell>
        <mxCell id="ar0Zps7FBATPay8NSn_M-1" value="User" style="swimlane;whiteSpace=wrap;html=1;startSize=23;labelBackgroundColor=none;fillColor=#B0E3E6;strokeColor=default;sketch=1;curveFitting=1;jiggle=2;rounded=0;fontFamily=Comic Sans MS;fontSize=13;" parent="1" vertex="1">
          <mxGeometry x="400" y="100" width="128" height="150" as="geometry" />
        </mxCell>
        <mxCell id="ar0Zps7FBATPay8NSn_M-8" value="&lt;div style=&quot;text-align: left; line-height: 140%; font-size: 13px;&quot;&gt;&lt;font style=&quot;font-size: 13px;&quot;&gt;userID (PK)&lt;/font&gt;&lt;/div&gt;&lt;div style=&quot;text-align: left; line-height: 140%; font-size: 13px;&quot;&gt;&lt;font style=&quot;font-size: 13px;&quot;&gt;userEmail&lt;/font&gt;&lt;div style=&quot;line-height: 140%; font-size: 13px;&quot;&gt;&lt;font style=&quot;font-size: 13px;&quot;&gt;userPassword&amp;nbsp;&lt;/font&gt;&lt;/div&gt;&lt;div style=&quot;line-height: 140%; font-size: 13px;&quot;&gt;&lt;font style=&quot;font-size: 13px;&quot;&gt;userName&lt;/font&gt;&lt;/div&gt;&lt;div style=&quot;line-height: 140%; font-size: 13px;&quot;&gt;&lt;font style=&quot;font-size: 13px;&quot;&gt;roleID (FK)&lt;/font&gt;&lt;/div&gt;&lt;/div&gt;" style="text;html=1;align=center;verticalAlign=middle;resizable=0;points=[];autosize=1;strokeColor=none;fillColor=none;labelBackgroundColor=none;sketch=1;curveFitting=1;jiggle=2;rounded=0;fontFamily=Comic Sans MS;fontSize=13;" parent="ar0Zps7FBATPay8NSn_M-1" vertex="1">
          <mxGeometry x="9" y="35" width="110" height="100" as="geometry" />
        </mxCell>
        <mxCell id="ar0Zps7FBATPay8NSn_M-4" value="Role" style="swimlane;whiteSpace=wrap;html=1;labelBackgroundColor=none;fillColor=#B0E3E6;strokeColor=default;sketch=1;curveFitting=1;jiggle=2;rounded=0;fontFamily=Comic Sans MS;fontSize=13;" parent="1" vertex="1">
          <mxGeometry x="718" y="90" width="105" height="90" as="geometry" />
        </mxCell>
        <mxCell id="ar0Zps7FBATPay8NSn_M-14" value="&lt;div style=&quot;text-align: left; line-height: 140%; font-size: 13px;&quot;&gt;roleID (PK)&lt;/div&gt;&lt;div style=&quot;text-align: left; line-height: 140%; font-size: 13px;&quot;&gt;&lt;div style=&quot;line-height: 140%; font-size: 13px;&quot;&gt;roleName&lt;/div&gt;&lt;/div&gt;" style="text;html=1;align=center;verticalAlign=middle;resizable=0;points=[];autosize=1;strokeColor=none;fillColor=none;labelBackgroundColor=none;sketch=1;curveFitting=1;jiggle=2;rounded=0;fontFamily=Comic Sans MS;fontSize=13;" parent="ar0Zps7FBATPay8NSn_M-4" vertex="1">
          <mxGeometry x="5" y="30" width="90" height="50" as="geometry" />
        </mxCell>
        <mxCell id="ar0Zps7FBATPay8NSn_M-5" value="Waste Transfer Entry" style="swimlane;whiteSpace=wrap;html=1;labelBackgroundColor=none;fillColor=#b0e3e6;strokeColor=#000000;sketch=1;curveFitting=1;jiggle=2;rounded=0;fontFamily=Comic Sans MS;fontSize=13;startSize=40;" parent="1" vertex="1">
          <mxGeometry x="750" y="380" width="200" height="250" as="geometry" />
        </mxCell>
        <mxCell id="ar0Zps7FBATPay8NSn_M-40" value="transferEntryID (Pk)&lt;br style=&quot;font-size: 13px;&quot;&gt;stsManagerID (Fk)&lt;br style=&quot;font-size: 13px;&quot;&gt;stsWardNo (fK)&lt;br style=&quot;font-size: 13px;&quot;&gt;landfillSiteNo (fk)&lt;br style=&quot;font-size: 13px;&quot;&gt;vehicleRegNo (fk)&lt;br style=&quot;font-size: 13px;&quot;&gt;wasteVolume&lt;br style=&quot;font-size: 13px;&quot;&gt;arrivalTime&lt;br style=&quot;font-size: 13px;&quot;&gt;departureTime&lt;br style=&quot;font-size: 13px;&quot;&gt;fuelCost&lt;br style=&quot;font-size: 13px;&quot;&gt;dateToday&lt;div style=&quot;line-height: 140%; font-size: 13px;&quot;&gt;&lt;br style=&quot;font-size: 13px;&quot;&gt;&lt;/div&gt;" style="text;html=1;align=left;verticalAlign=middle;resizable=0;points=[];autosize=1;strokeColor=none;fillColor=none;labelBackgroundColor=none;sketch=1;curveFitting=1;jiggle=2;rounded=0;fontFamily=Comic Sans MS;fontSize=13;horizontal=1;" parent="ar0Zps7FBATPay8NSn_M-5" vertex="1">
          <mxGeometry x="20" y="55" width="150" height="190" as="geometry" />
        </mxCell>
        <mxCell id="ar0Zps7FBATPay8NSn_M-96" style="edgeStyle=orthogonalEdgeStyle;rounded=0;orthogonalLoop=1;jettySize=auto;html=1;exitX=0.75;exitY=0;exitDx=0;exitDy=0;entryX=1;entryY=0.5;entryDx=0;entryDy=0;endArrow=none;endFill=0;sketch=1;curveFitting=1;jiggle=2;fontFamily=Comic Sans MS;fontSize=13;" parent="1" source="ar0Zps7FBATPay8NSn_M-6" target="ar0Zps7FBATPay8NSn_M-93" edge="1">
          <mxGeometry relative="1" as="geometry" />
        </mxCell>
        <mxCell id="ar0Zps7FBATPay8NSn_M-99" value="1" style="edgeLabel;html=1;align=center;verticalAlign=middle;resizable=0;points=[];sketch=1;curveFitting=1;jiggle=2;rounded=0;fontFamily=Comic Sans MS;fontSize=13;" parent="ar0Zps7FBATPay8NSn_M-96" vertex="1" connectable="0">
          <mxGeometry x="0.2445" relative="1" as="geometry">
            <mxPoint as="offset" />
          </mxGeometry>
        </mxCell>
        <mxCell id="ar0Zps7FBATPay8NSn_M-6" value="Vehicle&amp;nbsp;" style="swimlane;whiteSpace=wrap;html=1;labelBackgroundColor=none;fillColor=#B0E3E6;strokeColor=#000000;sketch=1;curveFitting=1;jiggle=2;rounded=0;fontFamily=Comic Sans MS;fontSize=13;" parent="1" vertex="1">
          <mxGeometry x="1150" y="480" width="172" height="145" as="geometry" />
        </mxCell>
        <mxCell id="ar0Zps7FBATPay8NSn_M-18" value="vehicleRegNumber (PK)&lt;br&gt;vehicleType&lt;br&gt;capacity&lt;br&gt;loadedFuelCost&lt;br&gt;unloadedFuelCost" style="text;html=1;align=left;verticalAlign=middle;resizable=0;points=[];autosize=1;strokeColor=none;fillColor=none;labelBackgroundColor=none;sketch=1;curveFitting=1;jiggle=2;rounded=0;fontFamily=Comic Sans MS;fontSize=13;" parent="ar0Zps7FBATPay8NSn_M-6" vertex="1">
          <mxGeometry x="10" y="40" width="160" height="90" as="geometry" />
        </mxCell>
        <mxCell id="ar0Zps7FBATPay8NSn_M-11" value="&lt;div style=&quot;font-size: 13px;&quot;&gt;&lt;span style=&quot;background-color: initial; font-size: 13px;&quot;&gt;is&amp;nbsp;&lt;/span&gt;&lt;br style=&quot;font-size: 13px;&quot;&gt;&lt;/div&gt;&lt;div style=&quot;font-size: 13px;&quot;&gt;associated with&lt;/div&gt;" style="rhombus;whiteSpace=wrap;html=1;labelBackgroundColor=none;fillColor=#B0E3E6;strokeColor=#0B656B;sketch=1;curveFitting=1;jiggle=2;rounded=0;fontFamily=Comic Sans MS;fontSize=13;gradientColor=none;" parent="1" vertex="1">
          <mxGeometry x="570" y="107.5" width="90" height="95" as="geometry" />
        </mxCell>
        <mxCell id="ar0Zps7FBATPay8NSn_M-89" style="edgeStyle=orthogonalEdgeStyle;rounded=0;orthogonalLoop=1;jettySize=auto;html=1;exitX=1;exitY=0.5;exitDx=0;exitDy=0;entryX=0;entryY=0.5;entryDx=0;entryDy=0;endArrow=none;endFill=0;sketch=1;curveFitting=1;jiggle=2;fontFamily=Comic Sans MS;fontSize=13;" parent="1" source="ar0Zps7FBATPay8NSn_M-3" target="ar0Zps7FBATPay8NSn_M-88" edge="1">
          <mxGeometry relative="1" as="geometry" />
        </mxCell>
        <mxCell id="ar0Zps7FBATPay8NSn_M-91" value="1" style="edgeLabel;html=1;align=center;verticalAlign=middle;resizable=0;points=[];sketch=1;curveFitting=1;jiggle=2;rounded=0;fontFamily=Comic Sans MS;fontSize=13;" parent="ar0Zps7FBATPay8NSn_M-89" vertex="1" connectable="0">
          <mxGeometry x="-0.0256" y="1" relative="1" as="geometry">
            <mxPoint as="offset" />
          </mxGeometry>
        </mxCell>
        <mxCell id="ar0Zps7FBATPay8NSn_M-3" value="&lt;font style=&quot;font-size: 13px;&quot;&gt;&lt;span id=&quot;docs-internal-guid-3b0759ed-7fff-ce5e-7ef2-6e1160e2cc00&quot; style=&quot;font-size: 13px;&quot;&gt;&lt;span style=&quot;color: rgb(13, 13, 13); background-color: transparent; font-variant-numeric: normal; font-variant-east-asian: normal; font-variant-alternates: normal; font-variant-position: normal; vertical-align: baseline; white-space-collapse: preserve; font-size: 13px;&quot;&gt;Secondary Transfer Station (&lt;/span&gt;&lt;/span&gt;STS)&lt;/font&gt;" style="swimlane;whiteSpace=wrap;html=1;startSize=60;align=center;labelBackgroundColor=none;fillColor=#B0E3E6;strokeColor=#000000;sketch=1;curveFitting=1;jiggle=2;rounded=0;fontFamily=Comic Sans MS;fontSize=13;" parent="1" vertex="1">
          <mxGeometry x="357" y="395" width="162" height="180" as="geometry" />
        </mxCell>
        <mxCell id="ar0Zps7FBATPay8NSn_M-19" value="stsID (PK)&lt;div style=&quot;line-height: 140%; font-size: 13px;&quot;&gt;stsWardNo&lt;/div&gt;&lt;div style=&quot;line-height: 140%; font-size: 13px;&quot;&gt;stsCapacity&lt;/div&gt;&lt;div style=&quot;line-height: 140%; font-size: 13px;&quot;&gt;stsGpsCoords&lt;/div&gt;&lt;div style=&quot;line-height: 140%; font-size: 13px;&quot;&gt;stsManagerID (FK)&lt;/div&gt;" style="text;html=1;align=left;verticalAlign=middle;resizable=0;points=[];autosize=1;strokeColor=none;fillColor=none;labelBackgroundColor=none;sketch=1;curveFitting=1;jiggle=2;rounded=0;fontFamily=Comic Sans MS;fontSize=13;" parent="ar0Zps7FBATPay8NSn_M-3" vertex="1">
          <mxGeometry x="11" y="70" width="140" height="100" as="geometry" />
        </mxCell>
        <mxCell id="ar0Zps7FBATPay8NSn_M-16" style="edgeStyle=orthogonalEdgeStyle;rounded=0;orthogonalLoop=1;jettySize=auto;html=1;exitX=1;exitY=0.5;exitDx=0;exitDy=0;entryX=0;entryY=0.5;entryDx=0;entryDy=0;endArrow=none;endFill=0;labelBackgroundColor=none;fontColor=default;sketch=1;curveFitting=1;jiggle=2;fontFamily=Comic Sans MS;fontSize=13;" parent="1" source="ar0Zps7FBATPay8NSn_M-11" target="ar0Zps7FBATPay8NSn_M-4" edge="1">
          <mxGeometry relative="1" as="geometry" />
        </mxCell>
        <mxCell id="ar0Zps7FBATPay8NSn_M-55" value="&amp;nbsp;1&amp;nbsp;" style="edgeLabel;html=1;align=center;verticalAlign=middle;resizable=0;points=[];strokeColor=#BAC8D3;fontColor=#182E3E;fillColor=#B1DDF0;sketch=1;curveFitting=1;jiggle=2;rounded=0;fontFamily=Comic Sans MS;fontSize=13;" parent="ar0Zps7FBATPay8NSn_M-16" vertex="1" connectable="0">
          <mxGeometry x="0.0491" y="2" relative="1" as="geometry">
            <mxPoint as="offset" />
          </mxGeometry>
        </mxCell>
        <mxCell id="ar0Zps7FBATPay8NSn_M-2" value="Waste Collection Entry" style="swimlane;whiteSpace=wrap;html=1;labelBackgroundColor=none;fillColor=#b1ddf0;strokeColor=#000000;sketch=1;curveFitting=1;jiggle=2;rounded=0;fontFamily=Comic Sans MS;fontSize=13;startSize=40;" parent="1" vertex="1">
          <mxGeometry x="920" y="80" width="200" height="180" as="geometry" />
        </mxCell>
        <mxCell id="ar0Zps7FBATPay8NSn_M-24" value="wasteCollectionId&lt;div style=&quot;line-height: 140%; font-size: 13px;&quot;&gt;wasteCollectionVolume&lt;/div&gt;&lt;div style=&quot;line-height: 140%; font-size: 13px;&quot;&gt;collectionArrivalTime&lt;/div&gt;&lt;div style=&quot;line-height: 140%; font-size: 13px;&quot;&gt;collectionDepartureTime&lt;/div&gt;&lt;div style=&quot;line-height: 140%; font-size: 13px;&quot;&gt;&lt;div style=&quot;line-height: 140%; font-size: 13px;&quot;&gt;stsID (FK)&lt;/div&gt;&lt;div style=&quot;line-height: 140%; font-size: 13px;&quot;&gt;vehicleID (FK)&lt;/div&gt;&lt;/div&gt;" style="text;html=1;align=left;verticalAlign=middle;resizable=0;points=[];autosize=1;strokeColor=none;fillColor=none;labelBackgroundColor=none;sketch=1;curveFitting=1;jiggle=2;rounded=0;fontFamily=Comic Sans MS;fontSize=13;" parent="ar0Zps7FBATPay8NSn_M-2" vertex="1">
          <mxGeometry x="15" y="45" width="170" height="120" as="geometry" />
        </mxCell>
        <mxCell id="ar0Zps7FBATPay8NSn_M-64" style="edgeStyle=orthogonalEdgeStyle;rounded=0;orthogonalLoop=1;jettySize=auto;html=1;exitX=0.5;exitY=1;exitDx=0;exitDy=0;entryX=0.5;entryY=0;entryDx=0;entryDy=0;endArrow=none;endFill=0;sketch=1;curveFitting=1;jiggle=2;fontFamily=Comic Sans MS;fontSize=13;" parent="1" source="ar0Zps7FBATPay8NSn_M-25" target="ar0Zps7FBATPay8NSn_M-6" edge="1">
          <mxGeometry relative="1" as="geometry" />
        </mxCell>
        <mxCell id="ar0Zps7FBATPay8NSn_M-66" value="1" style="edgeLabel;html=1;align=center;verticalAlign=middle;resizable=0;points=[];sketch=1;curveFitting=1;jiggle=2;rounded=0;fontFamily=Comic Sans MS;fontSize=13;" parent="ar0Zps7FBATPay8NSn_M-64" vertex="1" connectable="0">
          <mxGeometry x="-0.0769" y="1" relative="1" as="geometry">
            <mxPoint as="offset" />
          </mxGeometry>
        </mxCell>
        <mxCell id="ar0Zps7FBATPay8NSn_M-25" value="&lt;div style=&quot;font-size: 13px;&quot;&gt;&lt;br style=&quot;font-size: 13px;&quot;&gt;&lt;/div&gt;Collected&amp;nbsp;&lt;div style=&quot;font-size: 13px;&quot;&gt;by&lt;/div&gt;" style="rhombus;whiteSpace=wrap;html=1;labelBackgroundColor=none;fillColor=#b1ddf0;strokeColor=#0E8088;sketch=1;curveFitting=1;jiggle=2;rounded=0;fontFamily=Comic Sans MS;fontSize=13;" parent="1" vertex="1">
          <mxGeometry x="970" y="315" width="100" height="95" as="geometry" />
        </mxCell>
        <mxCell id="ar0Zps7FBATPay8NSn_M-38" style="edgeStyle=orthogonalEdgeStyle;rounded=0;orthogonalLoop=1;jettySize=auto;html=1;exitX=0.5;exitY=0;exitDx=0;exitDy=0;entryX=0.75;entryY=1;entryDx=0;entryDy=0;endArrow=none;endFill=0;endSize=3;labelBackgroundColor=none;fontColor=default;sketch=1;curveFitting=1;jiggle=2;fontFamily=Comic Sans MS;fontSize=13;" parent="1" source="ar0Zps7FBATPay8NSn_M-25" target="ar0Zps7FBATPay8NSn_M-2" edge="1">
          <mxGeometry relative="1" as="geometry" />
        </mxCell>
        <mxCell id="ar0Zps7FBATPay8NSn_M-63" value="&lt;div style=&quot;font-size: 13px;&quot;&gt;M&lt;/div&gt;" style="edgeLabel;html=1;align=center;verticalAlign=middle;resizable=0;points=[];sketch=1;curveFitting=1;jiggle=2;rounded=0;fontFamily=Comic Sans MS;fontSize=13;" parent="ar0Zps7FBATPay8NSn_M-38" vertex="1" connectable="0">
          <mxGeometry x="0.1744" y="1" relative="1" as="geometry">
            <mxPoint as="offset" />
          </mxGeometry>
        </mxCell>
        <mxCell id="ar0Zps7FBATPay8NSn_M-51" style="edgeStyle=orthogonalEdgeStyle;rounded=0;orthogonalLoop=1;jettySize=auto;html=1;exitX=1;exitY=0.5;exitDx=0;exitDy=0;strokeColor=#EEEEEE;fontColor=#FFFFFF;sketch=1;curveFitting=1;jiggle=2;fontFamily=Comic Sans MS;fontSize=13;" parent="1" source="ar0Zps7FBATPay8NSn_M-41" edge="1">
          <mxGeometry relative="1" as="geometry">
            <mxPoint x="1068" y="515" as="targetPoint" />
          </mxGeometry>
        </mxCell>
        <mxCell id="ar0Zps7FBATPay8NSn_M-52" style="edgeStyle=orthogonalEdgeStyle;rounded=0;orthogonalLoop=1;jettySize=auto;html=1;exitX=1;exitY=0.5;exitDx=0;exitDy=0;strokeColor=#000000;fontColor=#FFFFFF;endArrow=none;endFill=0;sketch=1;curveFitting=1;jiggle=2;fontFamily=Comic Sans MS;fontSize=13;entryX=0;entryY=0.5;entryDx=0;entryDy=0;" parent="1" source="ar0Zps7FBATPay8NSn_M-41" edge="1" target="ar0Zps7FBATPay8NSn_M-6">
          <mxGeometry relative="1" as="geometry">
            <mxPoint x="1078" y="515" as="targetPoint" />
          </mxGeometry>
        </mxCell>
        <mxCell id="ar0Zps7FBATPay8NSn_M-53" value="&amp;nbsp;1&amp;nbsp;" style="edgeLabel;html=1;align=center;verticalAlign=middle;resizable=0;points=[];strokeColor=#BAC8D3;fontColor=#182E3E;fillColor=#B1DDF0;sketch=1;curveFitting=1;jiggle=2;rounded=0;fontFamily=Comic Sans MS;fontSize=13;" parent="ar0Zps7FBATPay8NSn_M-52" vertex="1" connectable="0">
          <mxGeometry x="0.0349" y="-1" relative="1" as="geometry">
            <mxPoint as="offset" />
          </mxGeometry>
        </mxCell>
        <mxCell id="ar0Zps7FBATPay8NSn_M-41" value="transferred&lt;div style=&quot;line-height: 80%; font-size: 13px;&quot;&gt;by&lt;/div&gt;" style="rhombus;whiteSpace=wrap;html=1;labelBackgroundColor=none;fillColor=#b0e3e6;strokeColor=#0e8088;sketch=1;curveFitting=1;jiggle=2;rounded=0;fontFamily=Comic Sans MS;fontSize=13;" parent="1" vertex="1">
          <mxGeometry x="1008" y="615" width="112" height="110" as="geometry" />
        </mxCell>
        <mxCell id="ar0Zps7FBATPay8NSn_M-67" value="manages" style="rhombus;whiteSpace=wrap;html=1;fillColor=#B0E3E6;strokeColor=#0e8088;sketch=1;curveFitting=1;jiggle=2;rounded=0;fontFamily=Comic Sans MS;fontSize=13;" parent="1" vertex="1">
          <mxGeometry x="424" y="280" width="80" height="60" as="geometry" />
        </mxCell>
        <mxCell id="ar0Zps7FBATPay8NSn_M-68" style="edgeStyle=orthogonalEdgeStyle;rounded=0;orthogonalLoop=1;jettySize=auto;html=1;exitX=0.5;exitY=0;exitDx=0;exitDy=0;entryX=0.5;entryY=1;entryDx=0;entryDy=0;endArrow=none;endFill=0;sketch=1;curveFitting=1;jiggle=2;fontFamily=Comic Sans MS;fontSize=13;" parent="1" source="ar0Zps7FBATPay8NSn_M-67" target="ar0Zps7FBATPay8NSn_M-1" edge="1">
          <mxGeometry relative="1" as="geometry" />
        </mxCell>
        <mxCell id="ar0Zps7FBATPay8NSn_M-71" value="1" style="edgeLabel;html=1;align=center;verticalAlign=middle;resizable=0;points=[];sketch=1;curveFitting=1;jiggle=2;rounded=0;fontFamily=Comic Sans MS;fontSize=13;" parent="ar0Zps7FBATPay8NSn_M-68" vertex="1" connectable="0">
          <mxGeometry x="-0.0196" y="-1" relative="1" as="geometry">
            <mxPoint as="offset" />
          </mxGeometry>
        </mxCell>
        <mxCell id="ar0Zps7FBATPay8NSn_M-69" style="edgeStyle=orthogonalEdgeStyle;rounded=0;orthogonalLoop=1;jettySize=auto;html=1;exitX=0.5;exitY=1;exitDx=0;exitDy=0;entryX=0.436;entryY=-0.006;entryDx=0;entryDy=0;entryPerimeter=0;endArrow=none;endFill=0;sketch=1;curveFitting=1;jiggle=2;fontFamily=Comic Sans MS;fontSize=13;" parent="1" source="ar0Zps7FBATPay8NSn_M-67" target="ar0Zps7FBATPay8NSn_M-3" edge="1">
          <mxGeometry relative="1" as="geometry" />
        </mxCell>
        <mxCell id="ar0Zps7FBATPay8NSn_M-70" value="1" style="edgeLabel;html=1;align=center;verticalAlign=middle;resizable=0;points=[];sketch=1;curveFitting=1;jiggle=2;rounded=0;fontFamily=Comic Sans MS;fontSize=13;" parent="ar0Zps7FBATPay8NSn_M-69" vertex="1" connectable="0">
          <mxGeometry x="0.0177" y="-1" relative="1" as="geometry">
            <mxPoint as="offset" />
          </mxGeometry>
        </mxCell>
        <mxCell id="ar0Zps7FBATPay8NSn_M-72" value="Billing" style="swimlane;whiteSpace=wrap;html=1;labelBackgroundColor=none;fillColor=#b0e3e6;strokeColor=#000000;sketch=1;curveFitting=1;jiggle=2;rounded=0;fontFamily=Comic Sans MS;fontSize=13;" parent="1" vertex="1">
          <mxGeometry x="1178.25" y="50" width="143.75" height="110" as="geometry" />
        </mxCell>
        <mxCell id="ar0Zps7FBATPay8NSn_M-73" value="&lt;p style=&quot;line-height: 70%; font-size: 13px;&quot;&gt;billingID (PK)&lt;/p&gt;&lt;p style=&quot;line-height: 70%; font-size: 13px;&quot;&gt;&lt;span style=&quot;background-color: initial; font-size: 13px;&quot;&gt;oilAllocationAmount&lt;/span&gt;&lt;/p&gt;&lt;div style=&quot;line-height: 70%; font-size: 13px;&quot;&gt;&lt;br style=&quot;font-size: 13px;&quot;&gt;&lt;/div&gt;&lt;p style=&quot;font-size: 13px;&quot;&gt;&lt;/p&gt;" style="text;html=1;align=left;verticalAlign=middle;resizable=0;points=[];autosize=1;strokeColor=none;fillColor=none;labelBackgroundColor=none;sketch=1;curveFitting=1;jiggle=2;rounded=0;fontFamily=Comic Sans MS;fontSize=13;" parent="ar0Zps7FBATPay8NSn_M-72" vertex="1">
          <mxGeometry x="3.75" y="20" width="140" height="90" as="geometry" />
        </mxCell>
        <mxCell id="ar0Zps7FBATPay8NSn_M-79" style="edgeStyle=orthogonalEdgeStyle;rounded=0;orthogonalLoop=1;jettySize=auto;html=1;exitX=1;exitY=0.5;exitDx=0;exitDy=0;entryX=0;entryY=0.5;entryDx=0;entryDy=0;endArrow=none;endFill=0;sketch=1;curveFitting=1;jiggle=2;fontFamily=Comic Sans MS;fontSize=13;" parent="1" source="ar0Zps7FBATPay8NSn_M-74" target="ar0Zps7FBATPay8NSn_M-77" edge="1">
          <mxGeometry relative="1" as="geometry" />
        </mxCell>
        <mxCell id="ar0Zps7FBATPay8NSn_M-82" value="&amp;nbsp;1&amp;nbsp;" style="edgeLabel;html=1;align=center;verticalAlign=middle;resizable=0;points=[];sketch=1;curveFitting=1;jiggle=2;rounded=0;fontFamily=Comic Sans MS;fontSize=13;" parent="ar0Zps7FBATPay8NSn_M-79" vertex="1" connectable="0">
          <mxGeometry x="-0.1243" y="-2" relative="1" as="geometry">
            <mxPoint as="offset" />
          </mxGeometry>
        </mxCell>
        <mxCell id="ar0Zps7FBATPay8NSn_M-74" value="Landfill" style="swimlane;whiteSpace=wrap;html=1;labelBackgroundColor=none;fillColor=#B0E3E6;strokeColor=#000000;sketch=1;curveFitting=1;jiggle=2;rounded=0;fontFamily=Comic Sans MS;fontSize=13;" parent="1" vertex="1">
          <mxGeometry x="530" y="570" width="176.5" height="185" as="geometry" />
        </mxCell>
        <mxCell id="5mzO6ijqT2syoPgmpGFN-13" value="landfillID (PK)&lt;div style=&quot;line-height: 140%; font-size: 13px;&quot;&gt;&lt;span style=&quot;background-color: initial;&quot;&gt;landfillSiteNo&lt;/span&gt;&lt;/div&gt;&lt;div style=&quot;line-height: 140%; font-size: 13px;&quot;&gt;&lt;span style=&quot;background-color: initial;&quot;&gt;landfillCapacity&lt;/span&gt;&lt;br&gt;&lt;/div&gt;&lt;div style=&quot;line-height: 140%; font-size: 13px;&quot;&gt;landfillGpsCoords&lt;/div&gt;&lt;div style=&quot;line-height: 140%; font-size: 13px;&quot;&gt;landFillManagerID (FK)&lt;/div&gt;" style="text;html=1;align=left;verticalAlign=middle;resizable=0;points=[];autosize=1;strokeColor=none;fillColor=default;labelBackgroundColor=none;sketch=1;curveFitting=1;jiggle=2;rounded=0;fontFamily=Comic Sans MS;fontSize=13;" vertex="1" parent="ar0Zps7FBATPay8NSn_M-74">
          <mxGeometry x="16.5" y="50" width="160" height="100" as="geometry" />
        </mxCell>
        <mxCell id="ar0Zps7FBATPay8NSn_M-80" style="edgeStyle=orthogonalEdgeStyle;rounded=0;orthogonalLoop=1;jettySize=auto;html=1;exitX=0.5;exitY=0;exitDx=0;exitDy=0;endArrow=none;endFill=0;sketch=1;curveFitting=1;jiggle=2;fontFamily=Comic Sans MS;fontSize=13;entryX=0.5;entryY=1;entryDx=0;entryDy=0;" parent="1" source="ar0Zps7FBATPay8NSn_M-77" target="ar0Zps7FBATPay8NSn_M-5" edge="1">
          <mxGeometry relative="1" as="geometry" />
        </mxCell>
        <mxCell id="ar0Zps7FBATPay8NSn_M-81" value="&amp;nbsp;M&amp;nbsp;" style="edgeLabel;html=1;align=center;verticalAlign=middle;resizable=0;points=[];sketch=1;curveFitting=1;jiggle=2;rounded=0;fontFamily=Comic Sans MS;fontSize=13;" parent="ar0Zps7FBATPay8NSn_M-80" vertex="1" connectable="0">
          <mxGeometry x="0.192" y="-3" relative="1" as="geometry">
            <mxPoint as="offset" />
          </mxGeometry>
        </mxCell>
        <mxCell id="ar0Zps7FBATPay8NSn_M-77" value="receives" style="rhombus;whiteSpace=wrap;html=1;labelBackgroundColor=none;fillColor=#b0e3e6;strokeColor=#0e8088;sketch=1;curveFitting=1;jiggle=2;rounded=0;fontFamily=Comic Sans MS;fontSize=13;" parent="1" vertex="1">
          <mxGeometry x="783" y="660" width="80" height="70" as="geometry" />
        </mxCell>
        <mxCell id="ar0Zps7FBATPay8NSn_M-83" value="Assigns" style="rhombus;whiteSpace=wrap;html=1;fillColor=#b0e3e6;strokeColor=#0E8088;sketch=1;curveFitting=1;jiggle=2;rounded=0;fontFamily=Comic Sans MS;fontSize=13;" parent="1" vertex="1">
          <mxGeometry x="344" y="630" width="80" height="80" as="geometry" />
        </mxCell>
        <mxCell id="ar0Zps7FBATPay8NSn_M-84" style="edgeStyle=orthogonalEdgeStyle;rounded=0;orthogonalLoop=1;jettySize=auto;html=1;exitX=0;exitY=0.5;exitDx=0;exitDy=0;entryX=0.5;entryY=0;entryDx=0;entryDy=0;endArrow=none;endFill=0;sketch=1;curveFitting=1;jiggle=2;fontFamily=Comic Sans MS;fontSize=13;" parent="1" source="ar0Zps7FBATPay8NSn_M-3" target="ar0Zps7FBATPay8NSn_M-83" edge="1">
          <mxGeometry relative="1" as="geometry" />
        </mxCell>
        <mxCell id="ar0Zps7FBATPay8NSn_M-86" value="1" style="edgeLabel;html=1;align=center;verticalAlign=middle;resizable=0;points=[];sketch=1;curveFitting=1;jiggle=2;rounded=0;fontFamily=Comic Sans MS;fontSize=13;" parent="ar0Zps7FBATPay8NSn_M-84" vertex="1" connectable="0">
          <mxGeometry x="0.0861" relative="1" as="geometry">
            <mxPoint as="offset" />
          </mxGeometry>
        </mxCell>
        <mxCell id="ar0Zps7FBATPay8NSn_M-88" value="manages" style="rhombus;whiteSpace=wrap;html=1;fillColor=#b0e3e6;strokeColor=#0e8088;sketch=1;curveFitting=1;jiggle=2;rounded=0;fontFamily=Comic Sans MS;fontSize=13;" parent="1" vertex="1">
          <mxGeometry x="660" y="255" width="80" height="60" as="geometry" />
        </mxCell>
        <mxCell id="ar0Zps7FBATPay8NSn_M-90" style="edgeStyle=orthogonalEdgeStyle;rounded=0;orthogonalLoop=1;jettySize=auto;html=1;exitX=1;exitY=0.5;exitDx=0;exitDy=0;endArrow=none;endFill=0;sketch=1;curveFitting=1;jiggle=2;fontFamily=Comic Sans MS;fontSize=13;entryX=0.5;entryY=0;entryDx=0;entryDy=0;" parent="1" source="ar0Zps7FBATPay8NSn_M-88" edge="1" target="ar0Zps7FBATPay8NSn_M-5">
          <mxGeometry relative="1" as="geometry">
            <mxPoint x="818" y="440" as="targetPoint" />
          </mxGeometry>
        </mxCell>
        <mxCell id="ar0Zps7FBATPay8NSn_M-92" value="M" style="edgeLabel;html=1;align=center;verticalAlign=middle;resizable=0;points=[];sketch=1;curveFitting=1;jiggle=2;rounded=0;fontFamily=Comic Sans MS;fontSize=13;" parent="ar0Zps7FBATPay8NSn_M-90" vertex="1" connectable="0">
          <mxGeometry x="-0.0167" y="1" relative="1" as="geometry">
            <mxPoint as="offset" />
          </mxGeometry>
        </mxCell>
        <mxCell id="ar0Zps7FBATPay8NSn_M-93" value="&lt;div style=&quot;font-size: 13px;&quot;&gt;&lt;br style=&quot;font-size: 13px;&quot;&gt;&lt;/div&gt;&lt;div style=&quot;font-size: 13px;&quot;&gt;Generated&amp;nbsp;&lt;/div&gt;&lt;div style=&quot;font-size: 13px;&quot;&gt;By&lt;/div&gt;" style="rhombus;whiteSpace=wrap;html=1;labelBackgroundColor=none;fillColor=#b1ddf0;strokeColor=#0E8088;sketch=1;curveFitting=1;jiggle=2;rounded=0;fontFamily=Comic Sans MS;fontSize=13;" parent="1" vertex="1">
          <mxGeometry x="1180.5" y="260" width="100" height="100" as="geometry" />
        </mxCell>
        <mxCell id="ar0Zps7FBATPay8NSn_M-97" style="edgeStyle=orthogonalEdgeStyle;rounded=0;orthogonalLoop=1;jettySize=auto;html=1;exitX=0.5;exitY=0;exitDx=0;exitDy=0;entryX=0.555;entryY=1.003;entryDx=0;entryDy=0;entryPerimeter=0;endArrow=none;endFill=0;sketch=1;curveFitting=1;jiggle=2;fontFamily=Comic Sans MS;fontSize=13;" parent="1" source="ar0Zps7FBATPay8NSn_M-93" target="ar0Zps7FBATPay8NSn_M-73" edge="1">
          <mxGeometry relative="1" as="geometry" />
        </mxCell>
        <mxCell id="ar0Zps7FBATPay8NSn_M-98" value="M" style="edgeLabel;html=1;align=center;verticalAlign=middle;resizable=0;points=[];sketch=1;curveFitting=1;jiggle=2;rounded=0;fontFamily=Comic Sans MS;fontSize=13;" parent="ar0Zps7FBATPay8NSn_M-97" vertex="1" connectable="0">
          <mxGeometry x="-0.0885" y="1" relative="1" as="geometry">
            <mxPoint y="-1" as="offset" />
          </mxGeometry>
        </mxCell>
        <mxCell id="5mzO6ijqT2syoPgmpGFN-1" value="Permission" style="swimlane;whiteSpace=wrap;html=1;labelBackgroundColor=none;fillColor=#B0E3E6;strokeColor=default;sketch=1;curveFitting=1;jiggle=2;rounded=0;fontFamily=Comic Sans MS;fontSize=13;" vertex="1" parent="1">
          <mxGeometry x="530.75" y="-60" width="124.5" height="90" as="geometry" />
        </mxCell>
        <mxCell id="5mzO6ijqT2syoPgmpGFN-2" value="&lt;div style=&quot;text-align: left; line-height: 140%; font-size: 13px;&quot;&gt;PermissionName&lt;/div&gt;&lt;div style=&quot;text-align: left; line-height: 140%; font-size: 13px;&quot;&gt;&lt;div style=&quot;line-height: 140%; font-size: 13px;&quot;&gt;RoleID (FK)&lt;/div&gt;&lt;div style=&quot;line-height: 140%; font-size: 13px;&quot;&gt;Status&lt;/div&gt;&lt;/div&gt;" style="text;html=1;align=center;verticalAlign=middle;resizable=0;points=[];autosize=1;strokeColor=none;fillColor=none;labelBackgroundColor=none;sketch=1;curveFitting=1;jiggle=2;rounded=0;fontFamily=Comic Sans MS;fontSize=13;" vertex="1" parent="5mzO6ijqT2syoPgmpGFN-1">
          <mxGeometry x="2.25" y="20" width="120" height="70" as="geometry" />
        </mxCell>
        <mxCell id="5mzO6ijqT2syoPgmpGFN-4" value="&lt;div style=&quot;font-size: 13px;&quot;&gt;has&lt;/div&gt;" style="rhombus;whiteSpace=wrap;html=1;labelBackgroundColor=none;fillColor=default;strokeColor=#0B656B;sketch=1;curveFitting=1;jiggle=2;rounded=0;fontFamily=Comic Sans MS;fontSize=13;gradientColor=none;" vertex="1" parent="1">
          <mxGeometry x="718" y="-62.5" width="90" height="95" as="geometry" />
        </mxCell>
        <mxCell id="5mzO6ijqT2syoPgmpGFN-8" value="m" style="edgeStyle=orthogonalEdgeStyle;rounded=0;orthogonalLoop=1;jettySize=auto;html=1;exitX=1.008;exitY=0.344;exitDx=0;exitDy=0;entryX=-0.04;entryY=0.501;entryDx=0;entryDy=0;endArrow=none;endFill=0;labelBackgroundColor=none;fontColor=default;sketch=1;curveFitting=1;jiggle=2;fontFamily=Comic Sans MS;fontSize=13;exitPerimeter=0;entryPerimeter=0;" edge="1" parent="1" source="5mzO6ijqT2syoPgmpGFN-2" target="5mzO6ijqT2syoPgmpGFN-4">
          <mxGeometry relative="1" as="geometry">
            <mxPoint x="669.48" y="50" as="sourcePoint" />
            <mxPoint x="727.48" y="30" as="targetPoint" />
          </mxGeometry>
        </mxCell>
        <mxCell id="5mzO6ijqT2syoPgmpGFN-9" value="&amp;nbsp;M&amp;nbsp;" style="edgeLabel;html=1;align=center;verticalAlign=middle;resizable=0;points=[];strokeColor=#BAC8D3;fontColor=#182E3E;fillColor=#B1DDF0;sketch=1;curveFitting=1;jiggle=2;rounded=0;fontFamily=Comic Sans MS;fontSize=13;" vertex="1" connectable="0" parent="5mzO6ijqT2syoPgmpGFN-8">
          <mxGeometry x="0.0491" y="2" relative="1" as="geometry">
            <mxPoint as="offset" />
          </mxGeometry>
        </mxCell>
        <mxCell id="5mzO6ijqT2syoPgmpGFN-10" style="edgeStyle=orthogonalEdgeStyle;rounded=0;orthogonalLoop=1;jettySize=auto;html=1;exitX=0.5;exitY=1;exitDx=0;exitDy=0;entryX=0.433;entryY=-0.029;entryDx=0;entryDy=0;endArrow=none;endFill=0;labelBackgroundColor=none;fontColor=default;sketch=1;curveFitting=1;jiggle=2;fontFamily=Comic Sans MS;fontSize=13;entryPerimeter=0;" edge="1" parent="1" source="5mzO6ijqT2syoPgmpGFN-4" target="ar0Zps7FBATPay8NSn_M-4">
          <mxGeometry relative="1" as="geometry">
            <mxPoint x="664" y="-6" as="sourcePoint" />
            <mxPoint x="724" y="-5" as="targetPoint" />
          </mxGeometry>
        </mxCell>
        <mxCell id="5mzO6ijqT2syoPgmpGFN-11" value="&amp;nbsp;1&amp;nbsp;" style="edgeLabel;html=1;align=center;verticalAlign=middle;resizable=0;points=[];strokeColor=#BAC8D3;fontColor=#182E3E;fillColor=#B1DDF0;sketch=1;curveFitting=1;jiggle=2;rounded=0;fontFamily=Comic Sans MS;fontSize=13;" vertex="1" connectable="0" parent="5mzO6ijqT2syoPgmpGFN-10">
          <mxGeometry x="0.0491" y="2" relative="1" as="geometry">
            <mxPoint as="offset" />
          </mxGeometry>
        </mxCell>
        <mxCell id="5mzO6ijqT2syoPgmpGFN-19" style="edgeStyle=orthogonalEdgeStyle;rounded=0;orthogonalLoop=1;jettySize=auto;html=1;exitX=0.5;exitY=1;exitDx=0;exitDy=0;endArrow=none;endFill=0;sketch=1;curveFitting=1;jiggle=2;fontFamily=Comic Sans MS;fontSize=13;entryX=0.5;entryY=1;entryDx=0;entryDy=0;" edge="1" parent="1" source="ar0Zps7FBATPay8NSn_M-83" target="ar0Zps7FBATPay8NSn_M-6">
          <mxGeometry relative="1" as="geometry">
            <mxPoint x="518.47" y="845" as="sourcePoint" />
            <mxPoint x="750" y="840" as="targetPoint" />
            <Array as="points">
              <mxPoint x="384" y="800" />
              <mxPoint x="1236" y="800" />
            </Array>
          </mxGeometry>
        </mxCell>
        <mxCell id="5mzO6ijqT2syoPgmpGFN-20" value="M" style="edgeLabel;html=1;align=center;verticalAlign=middle;resizable=0;points=[];sketch=1;curveFitting=1;jiggle=2;rounded=0;fontFamily=Comic Sans MS;fontSize=19;" vertex="1" connectable="0" parent="5mzO6ijqT2syoPgmpGFN-19">
          <mxGeometry x="-0.0256" y="1" relative="1" as="geometry">
            <mxPoint as="offset" />
          </mxGeometry>
        </mxCell>
        <mxCell id="5mzO6ijqT2syoPgmpGFN-22" style="edgeStyle=orthogonalEdgeStyle;rounded=0;orthogonalLoop=1;jettySize=auto;html=1;exitX=-0.006;exitY=0.456;exitDx=0;exitDy=0;endArrow=none;endFill=0;sketch=1;curveFitting=1;jiggle=2;fontFamily=Comic Sans MS;fontSize=13;exitPerimeter=0;entryX=1;entryY=0.5;entryDx=0;entryDy=0;" edge="1" parent="1" source="ar0Zps7FBATPay8NSn_M-41" target="ar0Zps7FBATPay8NSn_M-5">
          <mxGeometry relative="1" as="geometry">
            <mxPoint x="1030" y="554.75" as="sourcePoint" />
            <mxPoint x="1057" y="510" as="targetPoint" />
          </mxGeometry>
        </mxCell>
        <mxCell id="5mzO6ijqT2syoPgmpGFN-23" value="&amp;nbsp;M&amp;nbsp;" style="edgeLabel;html=1;align=center;verticalAlign=middle;resizable=0;points=[];sketch=1;curveFitting=1;jiggle=2;rounded=0;fontFamily=Comic Sans MS;fontSize=13;" vertex="1" connectable="0" parent="5mzO6ijqT2syoPgmpGFN-22">
          <mxGeometry x="0.192" y="-3" relative="1" as="geometry">
            <mxPoint as="offset" />
          </mxGeometry>
        </mxCell>
      </root>
    </mxGraphModel>
  </diagram>
</mxfile>
